<svg id="Layer_1" data-name="Layer 1" xmlns="http://www.w3.org/2000/svg" width="481.7" height="30.3" viewBox="0 0 481.7 30.3">
  <defs>
    <style>
      .cls-1{fill:#ffd503;}
    </style>
  </defs>
  <title>
    MDM Marketing logo
  </title>
  <path class="cls-1" d="M32.1 25.8c0 .9.7 3-.2 3.6s-2.9.1-4 .1-3.3.3-3.7-.6 0-2.7 0-3.8v-8.5c0-.9.1-1.8 0-2.7s-.1-1.1-.8-.6a20.9 20.9 0 0 0-2.5 3l-3 3.7c-.9 1.1-1.8 1.7-3 .6s-3.7-4.8-5.8-6.9c-.5-.5-.7-.8-.9-.1a10.5 10.5 0 0 0-.1 2.5c0 1.3.1 2.6.2 3.9a81.2 81.2 0 0 1 0 8.3c-.1.7-.1 1-.8 1.2a7.9 7.9 0 0 1-2.3.1c-1.3-.1-2.8.4-4.1.1s-.8-2.3-.8-3.3v-5.3C.3 15.7-.1 10.3.3 5c.1-1.1-.6-3 0-3.9S3.1 1 4.1.9 7 .4 8.2.7s2 1.9 2.7 2.7L13.7 7c.6.7 1.5 2.7 2.5 2.8s2.1-2.1 2.6-2.8 2-2.3 2.9-3.5S23.2.9 24.3.6a8.6 8.6 0 0 1 2.1.1h2.3c.8 0 3.1-.5 3.7.3a4.4 4.4 0 0 1-.1 2 16.3 16.3 0 0 0-.1 2.1c.1 2.7-.1 5.5.1 8.3s0 2.8-.1 4.2.2 2.6.1 4-.2 2.8-.2 4.2z"/>
  <path class="cls-1" d="M66.9 15.8c-.2 3-1.1 6.5-3.3 8.7a13.6 13.6 0 0 1-8.2 4.5 25.2 25.2 0 0 1-5.1.3c-1.6-.1-3.2.1-4.8.1a24.4 24.4 0 0 1-5.2-.2c-1.5-.4-.8-3-.8-4.2.1-3.2 0-6.4.1-9.6.1-1.7-.1-3.3 0-5a39.2 39.2 0 0 0 0-4.7c-.1-1.1-.6-4 .3-4.8a5.3 5.3 0 0 1 2.3-.3h3c1.5 0 3.1.2 4.6.1a32.5 32.5 0 0 1 5.1.1A14.5 14.5 0 0 1 63.5 5c2.2 2.1 3.1 5.5 3.3 8.5.1.7.1 1.5.1 2.3zm-9 3.4c1.2-2.5 1.6-6.6-.1-8.9a6.9 6.9 0 0 0-3.2-2.6 14.8 14.8 0 0 0-4.3-.3 4.7 4.7 0 0 0-2.2.2 2.1 2.1 0 0 0-.5 1.8c0 1.5.3 3 .3 4.5s-.1 3.2-.2 4.7-.4 3.6.9 3.9a13.8 13.8 0 0 0 3.1-.2 13 13 0 0 0 2.3-.2 6.2 6.2 0 0 0 3.9-2.9z"/>
  <path class="cls-1" d="M104.4 25.8c0 .9.7 3-.2 3.6s-2.9.1-4 .1-3.3.3-3.7-.6 0-2.7 0-3.8v-8.5c0-.9.1-1.8 0-2.7s-.1-1.1-.8-.6a21 21 0 0 0-2.5 3l-3 3.7c-.9 1.1-1.8 1.7-3 .6s-3.7-4.8-5.8-6.9c-.5-.5-.7-.8-.9-.1a10.5 10.5 0 0 0-.1 2.5c0 1.3.1 2.6.2 3.9a81.1 81.1 0 0 1 0 8.3c-.1.7-.1 1-.8 1.2a7.9 7.9 0 0 1-2.3.1c-1.3-.1-2.8.4-4.1.1s-.8-2.3-.8-3.3v-5.3c0-5.4-.4-10.8 0-16.1.1-1.1-.6-3 0-3.9s2.8-.1 3.8-.2 2.9-.5 4.1-.2 2 1.9 2.7 2.7L86 7c.6.7 1.5 2.7 2.5 2.8s2.1-2.1 2.6-2.8 2-2.3 2.9-3.5S95.5.9 96.6.6a8.6 8.6 0 0 1 2.1.1h2.3c.8 0 3.1-.5 3.7.3a4.4 4.4 0 0 1-.1 2 16.3 16.3 0 0 0-.1 2.1c.1 2.7-.1 5.5.1 8.3s0 2.8-.1 4.2.2 2.6.1 4-.1 2.8-.2 4.2z"/>
  <path class="cls-1" d="M155.1 25.8c-5.7 6-17 5.8-22.9.3a13.4 13.4 0 0 1-3.2-5.6 14.3 14.3 0 0 1-.8-5.9 15.2 15.2 0 0 1 5-11A15.8 15.8 0 0 1 144.9 0a13.7 13.7 0 0 1 6 1.8l2.7 1.8c1 .8 1.1 1.2.2 2.2l-2 2c-.6.7-1.3 1.8-2.3 1.4s-1.6-1.1-2.6-1.4a9.1 9.1 0 0 0-2.9-.6 8.3 8.3 0 0 0-6 2.2 8.7 8.7 0 0 0-1.9 5.6c-.1 4.4 2.4 8.3 7.2 8.4a10.5 10.5 0 0 0 5.7-1.9c1-.7 1.5-1.3 2.6-.2s1.2 1.4 1.7 2.1 1.8 1.6 1.8 2.4z"/>
  <path class="cls-1" d="M190.9 14.7a47.1 47.1 0 0 1-.6 4.9 11.8 11.8 0 0 1-2 4.4 13.2 13.2 0 0 1-7.5 5.3 17.8 17.8 0 0 1-9.7.5 29.2 29.2 0 0 1-4.8-1.7 11.7 11.7 0 0 1-3.7-2.9A10.3 10.3 0 0 1 160 21a19.9 19.9 0 0 1-1-4.6 16.7 16.7 0 0 1 2-9.4c3.2-5.6 10.9-7.7 17-6.8a15.1 15.1 0 0 1 8.7 4 14.6 14.6 0 0 1 4 8.1c.1.8.2 1.6.2 2.4zm-8.4.7c0-3.3-1.3-6.6-4.5-8a8.3 8.3 0 0 0-9.2 2.2 9.1 9.1 0 0 0-1 9.1 8.2 8.2 0 0 0 8.4 4.4c4-.5 6.1-4 6.4-7.7z"/>
  <path class="cls-1" d="M223.5 6.9c-.4 5.2.4 10.5.1 15.7-.1 1.3-.2 2.6-.1 3.9s.1 2.5-1.3 2.9a19.2 19.2 0 0 1-3.9.2 2.7 2.7 0 0 1-2.8-1.4c-1.3-2.3-3.1-4.1-4.6-6.2s-3-4-4.5-6c-.1-.2-.8-1.3-1.1-1.3s-.4 1.5-.4 1.9v3.7s.1 2.5 0 3.8a32.8 32.8 0 0 0 .2 4c.1 1.5-1 1.6-2.3 1.6h-4c-1.3 0-2.1-.1-2.2-1.6s.1-2.4 0-3.7a67.1 67.1 0 0 1 .1-7.3c.1-2.6-.1-5.2 0-7.7a34.8 34.8 0 0 0 0-4 13.4 13.4 0 0 1 0-3.6c.3-1.3 1.7-1 2.8-.9h2a5.5 5.5 0 0 1 2 0 6.6 6.6 0 0 1 1.1 1.2l1.3 1.5 2.2 2.8c1.6 2.1 3.1 4.3 4.8 6.3s1.2 2.2 2.1 2.7.5-2 .4-2.7c0-2.5 0-5.1.1-7.7a20.5 20.5 0 0 1-.1-3.5c.3-1.4 2.3-.9 3.4-.9h3.6c1.5.1 1.5 1.1 1.4 2.4l-.3 3.9z"/>
  <path class="cls-1" d="M254.8 20.5a9.2 9.2 0 0 1-2.6 6.4 11.9 11.9 0 0 1-6.4 2.9c-4.9.7-9.6.7-13.7-2.4-.6-.4-2.4-1.5-2.4-2.3s1.6-1.9 2.1-2.5 1.3-2.4 2.3-2.2 2.1 1.4 3 1.8a11.8 11.8 0 0 0 7.2.8 2.9 2.9 0 0 0 2.5-1.9 2.3 2.3 0 0 0-1.7-2.5c-2.3-.9-5-.4-7.4-1.2s-4.9-1.8-6.1-3.7a9.5 9.5 0 0 1-.9-6.9 7.7 7.7 0 0 1 4.1-5.1c4.2-2.3 9.6-2.1 14-.6a15.4 15.4 0 0 1 3.1 1.5 1.1 1.1 0 0 1 .8 1.2 5.4 5.4 0 0 1-.9 1.6c-.6.8-1.4 2.4-2.4 2.9s-2.2-.7-3.1-1-5.1-1.2-6.9-.1a1.9 1.9 0 0 0-.6 2.9c.8.9 2.1.9 3.2 1a23.7 23.7 0 0 1 6.9 1.6 9.9 9.9 0 0 1 5.2 4.4 8.1 8.1 0 0 1 .7 3.4z"/>
  <path class="cls-1" d="M287 15.4c.3 4.5-.8 9.5-4.6 12.2s-9.2 3-13.7 2-7.7-5.2-8.5-9.6a40.8 40.8 0 0 1-.3-6.6V5.9s-.1-2.3 0-3.5a2.3 2.3 0 0 1 .4-1.6 3.4 3.4 0 0 1 1.8-.3h3.3c1.1 0 2.5-.2 2.7 1.2s-.1 2.2 0 3.2.1 2.3.1 3.4-.1 4.8-.2 7.2.1 4.7 1.7 6.3 4.5 1.7 6.5.6 2.7-3.6 2.8-5.8-.1-4.4 0-6.7-.1-4.9-.2-7.4.3-2.1 1.8-2a32.3 32.3 0 0 0 3.4.1c1-.1 2.7-.4 3 .7a15.2 15.2 0 0 1 0 3.4c0 2.3.1 4.5 0 6.8a30.5 30.5 0 0 0 0 3.9z"/>
  <path class="cls-1" d="M316 27.5c-.1.8.1 1.6-.8 1.9a6 6 0 0 1-2.1 0l-5.9-.2c-1.5 0-3.1.3-4.6.2s-3.4-.2-5.1-.1-3.8.7-3.7-1.5.2-1.4.2-2.2-.2-1.7-.2-2.6c0-3.1.2-6.2.1-9.4s0-6.9-.2-10.3c0-.6-.3-1.8.1-2.4s1.3-.4 1.9-.4 3.6-.1 5.3.1.9 2.7.9 3.9v5.2c-.1 3.3.2 6.6 0 10a7.8 7.8 0 0 0 0 2.2c.2.8.9.7 1.6.7h4.7l5.3-.2c.6-.1 1.6-.2 2 .3s.2 2 .2 2.6.3 1.5.3 2.2z"/>
  <path class="cls-1" d="M345.2 3.8c-.1.8 0 1.6 0 2.4s-.4 1.4-1.5 1.4h-5.1c-.8 0-1.5-.1-1.7.6a10.3 10.3 0 0 0-.2 2.7c0 1.9.1 3.7 0 5.6s0 3.3 0 5-.2 3.5 0 5.2.5 2.2.1 2.7-1.8.2-2.4.1-3.3.2-5-.1-.8-1-.7-1.8.1-1.7.1-2.6v-5.3c0-3.7-.2-7.4-.2-11.1 0-1-.2-1.1-1.2-1.1h-2.8c-1.2-.1-3.9.6-4.3-.8a8.7 8.7 0 0 1 0-2.3 22.4 22.4 0 0 1-.1-2.6c.2-1.8 2.8-.9 4.1-1h5.5l5.5-.2h5.3c1.1 0 4.1-.6 4.6.6a6.6 6.6 0 0 1 0 2.6z"/>
  <path class="cls-1" d="M382 28.3c.8 1.9-3.3 1.2-4.2 1.2s-2 .2-2.9.1a1.4 1.4 0 0 1-1.4-1.2 16.7 16.7 0 0 0-1.1-3c-.5-.7-1.5-.6-2.3-.6l-5.4-.2h-2.8c-.7 0-1.9-.2-2.6.1s-.7 3.7-2.2 4.5-1.9.1-2.7.1h-2.5c-.7 0-2.2.4-2.6-.4s.4-1.8.7-2.4c2.8-6.4 5.5-12.9 8.6-19.2.8-1.6 1.4-3.3 2.2-5s.5-1.4 1.6-1.5h2.7c1.5 0 4.6-.6 5.3.9s.5 1.6.9 2.3.8 1.6 1.2 2.4c1.4 3.2 2.8 6.5 4.2 9.8s3.2 6.6 4.6 10zM368.7 17l-1.4-4.2c-.3-.9-1.2-4.3-2.6-2.4s-1.2 3-1.7 4.4a5.2 5.2 0 0 0-.7 2.2c.1.7.9.7 1.5.7h2.8c.8.2 2 .4 2.1-.7z"/>
  <path class="cls-1" d="M415 6.9c-.4 5.2.4 10.5.1 15.7-.1 1.3-.2 2.6-.1 3.9s.1 2.5-1.3 2.9a19.2 19.2 0 0 1-3.9.2 2.7 2.7 0 0 1-2.8-1.4c-1.3-2.3-3.1-4.1-4.6-6.2s-3-4-4.5-6c-.1-.2-.8-1.3-1.1-1.3s-.4 1.5-.4 1.9v3.7s.1 2.5 0 3.8a32.7 32.7 0 0 0 .2 4c.1 1.5-1 1.6-2.3 1.6h-4c-1.3 0-2.1-.1-2.2-1.6s.1-2.4 0-3.7a67.3 67.3 0 0 1 .1-7.3c.1-2.6-.1-5.2 0-7.7a34.8 34.8 0 0 0 0-4 13.4 13.4 0 0 1 0-3.6c.3-1.3 1.7-1 2.8-.9h2a5.5 5.5 0 0 1 2 0 6.6 6.6 0 0 1 .9 1.1l1.3 1.5 2.2 2.8c1.6 2.1 3.1 4.3 4.8 6.3s1.2 2.2 2.1 2.7.5-2 .4-2.7c0-2.5 0-5.1.1-7.7a20.5 20.5 0 0 1-.1-3.5c.3-1.4 2.3-.9 3.4-.9h3.6c1.5.1 1.5 1.1 1.4 2.4s-.1 2.7-.1 4z"/>
  <path class="cls-1" d="M448 25.8c-5.7 6-17 5.8-22.9.3a13.4 13.4 0 0 1-3.2-5.6 14.3 14.3 0 0 1-.8-5.9 15.2 15.2 0 0 1 5-11A15.8 15.8 0 0 1 437.8 0a13.7 13.7 0 0 1 6 1.8l2.7 1.8c1 .8 1.1 1.2.2 2.2l-2 2c-.6.7-1.3 1.8-2.3 1.4s-1.6-1.1-2.6-1.4a9.1 9.1 0 0 0-2.9-.6 8.3 8.3 0 0 0-6 2.2A8.7 8.7 0 0 0 429 15c-.1 4.4 2.4 8.3 7.2 8.4a10.5 10.5 0 0 0 5.7-1.9c1-.7 1.5-1.3 2.6-.2s1.2 1.4 1.7 2.1 1.8 1.6 1.8 2.4z"/>
  <path class="cls-1" d="M481.8 1.1c-2.1 3.1-4.3 6.1-6.3 9.3-1 1.6-2.1 3.2-3.2 4.8l-1.6 2.2a4.3 4.3 0 0 0-.4 2.7c0 1.9.1 3.7 0 5.6a27 27 0 0 0 .1 2.8c0 1.1-.4 1.2-1.4 1.2h-4.6a6.2 6.2 0 0 1-1.7-.1c-.6-.2-.4-.9-.4-1.6v-3.6s-.2-3.5-.1-5.2-1.6-3.5-2.5-4.8c-2.1-3-4-6.3-6-9.4-.5-.8-2.8-3.7-1.8-4.1a4.3 4.3 0 0 1 1.3 0h4.5c.7 0 2.2-.2 2.8.2s1 1.6 1.3 2.2l2.8 4.6c.4.6.9 2.1 1.6 2.4s1.2-1.3 1.5-1.8 2-3 2.9-4.6l1.4-2.5c.6-.9 1.1-.7 2.1-.7s3.6-.1 5.3 0 2.4-.1 2.4.4z"/>
</svg>
